<svg xmlns="http://www.w3.org/2000/svg" fill-rule="evenodd" clip-rule="evenodd"><defs><style>:root svg:not(:target){display:none}</style></defs><svg id="arrow-simple" viewBox="0 0 8 8" fill="none" stroke="currentcolor" stroke-width="1"><path d="m1 3 3 3 3-3"/></svg><svg id="logo" viewBox="0 0 64 64" fill="none"><circle cx="32" cy="32" r="31.364" stroke="#160807" stroke-width="1.272"/><path d="M18.649 60.927c2.013-.353 7.142-2.395 11.55-7.735-1.441.085-5.758.46-7.735.636l8.688-2.861c1.307-1.766 4.345-7.544 6.04-16.53-.954.212-1.801.53-5.828.53l6.464-3.285L32 30.834l6.146-2.225c1.165-5.298 2.733-11.359 7.311-22.887-6.04 4.768-13.563 10.977-22.887 22.675-.845 1.06-.806 5.85.212 9.325l-3.073-4.768c-3.003 6.357-7.841 20.725-4.027 26.49 2.013-8.477 8.053-25.219 20.345-39.841-7.545 10.765-14.729 32.035-17.378 41.324Z" fill="#160807"/></svg><svg id="telegram" viewBox="0 0 96 96" fill="currentcolor"><path d="M80 28c.5-5-1-7-7-5-18 6-60 25-60 25-4.5 2-4 5 0 6l10.5 3c3 1 5.5 1 8.5-1l27-18c3-2 5-1 3 1L42.5 58C38 63 41 64 45 67l18 12c6 4 8.5 1 10-6 0 0 6-32 7-45Z"/></svg><svg id="vkontakte" viewBox="0 0 96 96" fill="currentcolor"><path d="M21 23H8c1 30 14 50 45 50V55c12 2 18 9 21 18h14c-3-13-13-21-21-25 8-4 16-14 18-25H72c-2 9-11 19-19 20V23H40v35c-12-3-19-18-19-35Z"/></svg><svg id="instagram" viewBox="0 0 96 96" fill="currentcolor"><path d="M48 17c-26 0-31 5-31 31s5 31 31 31 31-5 31-31-5-31-31-31Zm0 18c7 0 13 6 13 13s-6 13-13 13-13-6-13-13 6-13 13-13Zm21-4c0 2-1.5 4-4 4s-4-2-4-4 1.5-4 4-4 4 2 4 4Z"/></svg><svg id="play" viewBox="0 0 56 56" fill="none"><g filter="url(#filter0_d_66_136)"><path d="M28 8C16.954 8 8 16.954 8 28s8.954 20 20 20 20-8.954 20-20S39.046 8 28 8Zm-5.357 9.928A1.25 1.25 0 0 0 20.75 19v18a1.25 1.25 0 0 0 1.893 1.072l15-9a1.25 1.25 0 0 0 0-2.144l-15-9ZM34.57 28l-11.32 6.792V21.208L34.57 28Z" fill="#fff"/><rect x="4.6" y="4.6" width="46.8" height="46.8" rx="23.4" stroke="#fff" stroke-width="1.2"/></g><defs><filter id="filter0_d_66_136" x="0" y="0" width="56" height="56" filterUnits="userSpaceOnUse" color-interpolation-filters="sRGB"><feFlood flood-opacity="0" result="BackgroundImageFix"/><feColorMatrix in="SourceAlpha" values="0 0 0 0 0 0 0 0 0 0 0 0 0 0 0 0 0 0 127 0" result="hardAlpha"/><feOffset/><feGaussianBlur stdDeviation="2"/><feComposite in2="hardAlpha" operator="out"/><feColorMatrix values="0 0 0 0 0 0 0 0 0 0 0 0 0 0 0 0 0 0 0.3 0"/><feBlend in2="BackgroundImageFix" result="effect1_dropShadow_66_136"/><feBlend in="SourceGraphic" in2="effect1_dropShadow_66_136" result="shape"/></filter></defs></svg><svg id="pause" viewBox="0 0 48 48" fill="none"><g filter="url(#filter0_d_66_143)"><path d="M24 4C12.954 4 4 12.954 4 24s8.954 20 20 20 20-8.954 20-20S35.046 4 24 4Zm-6.742 27.724a.043.043 0 0 1-.008-.01V16.286l.008-.01a.105.105 0 0 1 .075-.026H20c.038 0 .062.014.075.026a.043.043 0 0 1 .008.01v15.428a.043.043 0 0 1-.008.01.105.105 0 0 1-.075.026h-2.667a.105.105 0 0 1-.075-.026Zm.075-17.974c-1.383 0-2.583 1.093-2.583 2.536v15.428c0 1.443 1.2 2.536 2.583 2.536H20c1.384 0 2.583-1.093 2.583-2.536V16.286c0-1.443-1.2-2.536-2.583-2.536h-2.667Zm10.592 2.526a.043.043 0 0 0-.008.01v15.428l.008.01a.105.105 0 0 0 .075.026h2.667a.105.105 0 0 0 .075-.026.064.064 0 0 0 .006-.007l.002-.003V16.286a.043.043 0 0 0-.008-.01.105.105 0 0 0-.075-.026H28a.105.105 0 0 0-.075.026ZM28 13.75c-1.384 0-2.583 1.093-2.583 2.536v15.428c0 1.443 1.2 2.536 2.583 2.536h2.667c1.383 0 2.583-1.093 2.583-2.536V16.286c0-1.443-1.2-2.536-2.583-2.536H28Z" fill="#fff"/></g><defs><filter id="filter0_d_66_143" x="-4" y="-4" width="56" height="56" filterUnits="userSpaceOnUse" color-interpolation-filters="sRGB"><feFlood flood-opacity="0" result="BackgroundImageFix"/><feColorMatrix in="SourceAlpha" values="0 0 0 0 0 0 0 0 0 0 0 0 0 0 0 0 0 0 127 0" result="hardAlpha"/><feOffset/><feGaussianBlur stdDeviation="2"/><feComposite in2="hardAlpha" operator="out"/><feColorMatrix values="0 0 0 0 0 0 0 0 0 0 0 0 0 0 0 0 0 0 0.3 0"/><feBlend in2="BackgroundImageFix" result="effect1_dropShadow_66_143"/><feBlend in="SourceGraphic" in2="effect1_dropShadow_66_143" result="shape"/></filter></defs></svg></svg>