<svg xmlns="http://www.w3.org/2000/svg" fill-rule="evenodd" clip-rule="evenodd">
<defs>
<style>:root svg:not(:target) {display: none;}</style>
</defs>


<svg id="arrow-simple" viewBox="0 0 8 8" fill="none" stroke="currentcolor" stroke-width="1">
	<path d="M1 3L4 6L7 3"/>
	<!--<path id="right" d="M3 1L6 4L3 7"/>
	<path id="left" d="M5 1L2 4L5 7"/>
	<path id="up" d="M1 5L4 2L7 5"/>-->
</svg>


<svg id="logo" viewBox="0 0 96 96" fill="currentcolor">
	<path d="M29 88C33 87.5 40 85 46 78C46 78 42 79 35 79C35 79 43 76 49 73C51 70 54 63 56 51C56 51 52.5 52 47 52C47 52 53 49.5 56 47L48 46C48 46 55 44 57 43C58.5 36 61 26 67 11C58 18 47 26 35 42C33 45 33 51 35 56L31 49C26 58 19 76 25 86C27 74 38 49 54 30C43 46 33 74 29 88Z"/>
	<circle cx="48" cy="48" r="45" fill="none" stroke="currentcolor" stroke-width="2"/>
</svg>


<svg id="telegram" viewBox="0 0 96 96" fill="currentcolor">
	<path d="M80 28C80.5 23 79 21 73 23C55 29 13 48 13 48C8.5 50 9 53 13 54L23.5 57C26.5 58 29 58 32 56L59 38C62 36 64 37 62 39L42.5 58C38 63 41 64 45 67L63 79C69 83 71.5 80 73 73C73 73 79 41 80 28Z"/>
</svg>


<svg id="vkontakte" viewBox="0 0 96 96" fill="currentcolor">
	<path d="M21 23H8C9 53 22 73 53 73V55C65 57 71 64 74 73H88C85 60 75 52 67 48C75 44 83 34 85 23H72C70 32 61 42 53 43V23H40V58C28 55 21 40 21 23Z"/>
</svg>


<svg id="instagram" viewBox="0 0 96 96" fill="currentcolor">
	<path fill-rule="evenodd" clip-rule="evenodd" d="M48 17C22 17 17 22 17 48C17 74 22 79 48 79C74 79 79 74 79 48C79 22 74 17 48 17ZM48 35C55 35 61 41 61 48C61 55 55 61 48 61C41 61 35 55 35 48C35 41 41 35 48 35ZM69 31C69 33 67.5 35 65 35C62.5 35 61 33 61 31C61 29 62.5 27 65 27C67.5 27 69 29 69 31Z"/>
</svg>


<svg id="whatsapp" viewBox="0 0 96 96" fill="currentcolor">
	<path d="M48 80C65.7 80 80 65.7 80 48C80 30.3 65.7 16 48 16C30.3 16 16 30.3 16 48C16 54.9 18.3 61.3 22 66.5L19 78L31 75C36 78.1 41.7 80 48 80ZM41.5 38.5C40.5 35.5 40 34 38 30.5C37 29 34.5 29.5 33 30.5C31 31.5 28.5 34.5 28.5 39C29 50 44 64 57 66C61.5 66.5 64 65.5 67 61C68 59 68 58 67 57C63.5 55 62.5 54.5 59 53C59 53 58 52.5 57 53.5C55.8 54.7 54 57 54 57C54 57 53 58 52 57.5C45 54 42 51 39 46C38 44.5 39 43 39 43C40 42 41 41 41 41C41 41 42 40 41.5 38.5Z"/>
</svg>


<svg id="play" viewBox="0 0 84 84" fill="#FF6626">
	<path d="M75.9048 38.9279V38.0628C75.9048 36.9094 74.8798 35.9001 73.7084 35.9001C72.537 35.9001 71.512 36.9094 71.512 38.0628V38.9279V39.7929C71.512 40.9464 72.537 41.9556 73.7084 41.9556C74.8798 41.9556 75.9048 40.9464 75.9048 39.7929V38.9279Z" fill="#FF6626"/>
	<path d="M69.4619 38.9279V33.5933C69.4619 32.4399 68.4369 31.4307 67.2655 31.4307C66.0941 31.4307 65.0691 32.4399 65.0691 33.5933V38.9279V44.2625C65.0691 45.4159 66.0941 46.4251 67.2655 46.4251C68.4369 46.4251 69.4619 45.4159 69.4619 44.2625V38.9279Z" fill="#FF6626"/>
	<path d="M63.0191 38.928V19.8965C63.0191 18.7431 61.9941 17.7339 60.8226 17.7339C59.6512 17.7339 58.6262 18.7431 58.6262 19.8965V38.928V57.9594C58.6262 59.1128 59.6512 60.1221 60.8226 60.1221C61.9941 60.1221 63.0191 59.1128 63.0191 57.9594V38.928Z" fill="#FF6626"/>
	<path d="M82.4941 38.9278V38.6395C82.4941 37.486 81.4691 36.4768 80.2976 36.4768C79.1262 36.4768 78.1012 37.486 78.1012 38.6395V38.9278V39.2162C78.1012 40.3696 79.1262 41.3788 80.2976 41.3788C81.4691 41.3788 82.4941 40.3696 82.4941 39.2162V38.9278Z" fill="#FF6626"/>
	<path d="M4.74051 38.9278V38.6395C4.74051 37.486 3.71551 36.4768 2.54408 36.4768C1.37266 36.4768 0.347656 37.486 0.347656 38.6395V38.9278V39.2162C0.347656 40.3696 1.37266 41.3788 2.54408 41.3788C3.71551 41.3788 4.74051 40.3696 4.74051 39.2162V38.9278Z" fill="#FF6626"/>
	<path d="M56.5762 38.9279V7.64142C56.5762 6.488 55.5512 5.47876 54.3798 5.47876C53.2083 5.47876 52.1833 6.488 52.1833 7.64142V38.9279V70.2144C52.1833 71.3679 53.2083 72.3771 54.3798 72.3771C55.5512 72.3771 56.5762 71.3679 56.5762 70.2144V38.9279Z" fill="#FF6626"/>
	<path d="M50.1333 38.928V24.366C50.1333 23.2126 49.1083 22.2034 47.9369 22.2034C46.7655 22.2034 45.7405 23.2126 45.7405 24.366V38.928V53.4899C45.7405 54.6433 46.7655 55.6525 47.9369 55.6525C49.1083 55.6525 50.1333 54.6433 50.1333 53.4899V38.928Z" fill="#FF6626"/>
	<path d="M43.6905 38.9278V37.0535C43.6905 35.9001 42.6655 34.8909 41.494 34.8909C40.3226 34.8909 39.2976 35.9001 39.2976 37.0535V38.9278V40.8021C39.2976 41.9556 40.3226 42.9648 41.494 42.9648C42.6655 42.9648 43.6905 41.9556 43.6905 40.8021V38.9278Z" fill="#FF6626"/>
	<path d="M37.2477 38.928V21.4825C37.2477 20.3291 36.2227 19.3198 35.0513 19.3198C33.8799 19.3198 32.8549 20.3291 32.8549 21.4825V38.928V56.3734C32.8549 57.5268 33.8799 58.5361 35.0513 58.5361C36.2227 58.5361 37.2477 57.5268 37.2477 56.3734V38.928Z" fill="#FF6626"/>
	<path d="M30.8048 38.9279V9.80402C30.8048 8.6506 29.7798 7.64136 28.6084 7.64136C27.437 7.64136 26.412 8.6506 26.412 9.80402V38.9279V68.0517C26.412 69.2051 27.437 70.2144 28.6084 70.2144C29.7798 70.2144 30.8048 69.2051 30.8048 68.0517V38.9279Z" fill="#FF6626"/>
	<path d="M24.2155 38.9279V2.16266C24.2155 1.00924 23.1905 0 22.0191 0C20.8476 0 19.8226 1.00924 19.8226 2.16266V38.9279V75.8373C19.8226 76.9908 20.8476 78 22.0191 78C23.1905 78 24.2155 76.9908 24.2155 75.8373V38.9279Z" fill="#FF6626"/>
	<path d="M17.7726 38.9278V28.6912C17.7726 27.5378 16.7476 26.5286 15.5762 26.5286C14.4048 26.5286 13.3798 27.5378 13.3798 28.6912V38.9278V49.1644C13.3798 50.3178 14.4048 51.3271 15.5762 51.3271C16.7476 51.3271 17.7726 50.3178 17.7726 49.1644V38.9278Z" fill="#FF6626"/>
	<path d="M11.3297 38.9279V34.8909C11.3297 33.7375 10.3047 32.7283 9.13332 32.7283C7.96189 32.7283 6.93689 33.7375 6.93689 34.8909V38.9279V42.9649C6.93689 44.1183 7.96189 45.1275 9.13332 45.1275C10.3047 45.1275 11.3297 44.1183 11.3297 42.9649V38.9279Z" fill="#FF6626"/>
</svg>


<!--<svg id="play" viewBox="0 0 56 56" fill="none">
<g filter="url(#filter0_d_66_136)">
<path fill-rule="evenodd" clip-rule="evenodd" d="M28 8C16.9543 8 8 16.9543 8 28C8 39.0457 16.9543 48 28 48C39.0457 48 48 39.0457 48 28C48 16.9543 39.0457 8 28 8ZM22.6431 17.9281C22.257 17.6964 21.776 17.6904 21.3841 17.9123C20.9922 18.1341 20.75 18.5497 20.75 19V37C20.75 37.4503 20.9922 37.8659 21.3841 38.0877C21.776 38.3096 22.257 38.3036 22.6431 38.0719L37.6431 29.0719C38.0196 28.846 38.25 28.4391 38.25 28C38.25 27.5609 38.0196 27.154 37.6431 26.9281L22.6431 17.9281ZM34.5704 28L23.25 34.7923V21.2077L34.5704 28Z" fill="#fff"/>
<rect x="4.6" y="4.6" width="46.8" height="46.8" rx="23.4" stroke="white" stroke-width="1.2"/>
</g>
<defs>
<filter id="filter0_d_66_136" x="0" y="0" width="56" height="56" filterUnits="userSpaceOnUse" color-interpolation-filters="sRGB">
<feFlood flood-opacity="0" result="BackgroundImageFix"/>
<feColorMatrix in="SourceAlpha" type="matrix" values="0 0 0 0 0 0 0 0 0 0 0 0 0 0 0 0 0 0 127 0" result="hardAlpha"/>
<feOffset/>
<feGaussianBlur stdDeviation="2"/>
<feComposite in2="hardAlpha" operator="out"/>
<feColorMatrix type="matrix" values="0 0 0 0 0 0 0 0 0 0 0 0 0 0 0 0 0 0 0.3 0"/>
<feBlend mode="normal" in2="BackgroundImageFix" result="effect1_dropShadow_66_136"/>
<feBlend mode="normal" in="SourceGraphic" in2="effect1_dropShadow_66_136" result="shape"/>
</filter>
</defs>
</svg>-->


<svg id="pause" viewBox="0 0 48 48" fill="none">
<g filter="url(#filter0_d_66_143)">
<path fill-rule="evenodd" clip-rule="evenodd" d="M24 4C12.9543 4 4 12.9543 4 24C4 35.0457 12.9543 44 24 44C35.0457 44 44 35.0457 44 24C44 12.9543 35.0457 4 24 4ZM17.2582 31.7236C17.2533 31.7189 17.2509 31.7153 17.25 31.7136V16.2864C17.2509 16.2847 17.2533 16.2811 17.2582 16.2764C17.2712 16.2638 17.2953 16.25 17.3333 16.25H20C20.038 16.25 20.0621 16.2638 20.0751 16.2764C20.08 16.2811 20.0824 16.2847 20.0833 16.2864V31.7136C20.0824 31.7153 20.08 31.7189 20.0751 31.7236C20.0621 31.7362 20.038 31.75 20 31.75H17.3333C17.2953 31.75 17.2712 31.7362 17.2582 31.7236ZM17.3333 13.75C15.9498 13.75 14.75 14.8428 14.75 16.2857V31.7143C14.75 33.1572 15.9498 34.25 17.3333 34.25H20C21.3835 34.25 22.5833 33.1572 22.5833 31.7143V16.2857C22.5833 14.8428 21.3835 13.75 20 13.75H17.3333ZM27.9249 16.2764C27.92 16.2811 27.9176 16.2847 27.9167 16.2864V31.7136C27.9176 31.7153 27.92 31.7189 27.9249 31.7236C27.9379 31.7362 27.962 31.75 28 31.75H30.6667C30.7047 31.75 30.7288 31.7362 30.7418 31.7236C30.7446 31.7209 30.7466 31.7185 30.748 31.7167C30.749 31.7154 30.7496 31.7143 30.75 31.7136V16.2864C30.7491 16.2847 30.7467 16.2811 30.7418 16.2764C30.7288 16.2638 30.7047 16.25 30.6667 16.25H28C27.962 16.25 27.9379 16.2638 27.9249 16.2764ZM28 13.75C26.6165 13.75 25.4167 14.8428 25.4167 16.2857V31.7143C25.4167 33.1572 26.6165 34.25 28 34.25H30.6667C32.0502 34.25 33.25 33.1572 33.25 31.7143V16.2857C33.25 14.8428 32.0502 13.75 30.6667 13.75H28Z" fill="#fff"/>
</g>
<defs>
<filter id="filter0_d_66_143" x="-4" y="-4" width="56" height="56" filterUnits="userSpaceOnUse" color-interpolation-filters="sRGB">
<feFlood flood-opacity="0" result="BackgroundImageFix"/>
<feColorMatrix in="SourceAlpha" type="matrix" values="0 0 0 0 0 0 0 0 0 0 0 0 0 0 0 0 0 0 127 0" result="hardAlpha"/>
<feOffset/>
<feGaussianBlur stdDeviation="2"/>
<feComposite in2="hardAlpha" operator="out"/>
<feColorMatrix type="matrix" values="0 0 0 0 0 0 0 0 0 0 0 0 0 0 0 0 0 0 0.3 0"/>
<feBlend mode="normal" in2="BackgroundImageFix" result="effect1_dropShadow_66_143"/>
<feBlend mode="normal" in="SourceGraphic" in2="effect1_dropShadow_66_143" result="shape"/>
</filter>
</defs>
</svg>


<svg id="lamp" viewBox="0 0 96 96" fill="currentcolor">
	<path d="M48 2C55.0001 2 55.0001 9 55.0001 9C58.0001 9 58.5001 10 59.0001 12L60.0001 22C60.0001 22 62.8633 22.0771 65.0001 23C67.1368 23.9229 68 24 69.0001 28C70.0001 32 76.5001 63 77.0001 68C77.5001 73 77.0001 74.5 75 76C73 77.5 69 79 69 79L72 89C72 89 74 89.5 74 91.5C74 93.5 72 94 72 94H24C24 94 22 93.5 22 91.5C22 89.5 24 89 24 89L27 79C27 79 22.5001 78 21.0001 76C19.5001 74 18.5 73 19.0001 68C19.5001 63 26.0001 32 27.0001 28C28 24 29 24 31.0001 23C33.0001 22 36.0001 22 36.0001 22L37.0001 12C37.5001 10 38.0001 9 41.0001 9C41.0001 9 41 2 48 2ZM48.0001 5C44.0001 5 44.0001 9 44.0001 9H52.0001C52.0001 9 52.0001 5 48.0001 5ZM28.0001 57C28.0001 45 40.0001 34 40.0001 25C35.0001 25 33.5001 25 31.0001 28C28.5001 31 22.5001 63 22.0001 69C21.5 75 25.0001 75 29 76L36 72C36 72 28.0001 69 28.0001 57ZM65.0001 28C62.0025 24.6808 61.0001 25 56.0001 25C56.0001 34 68.0001 47 68.0001 57C68.0001 67 60 72 60 72L67 76C71.0001 75 74.5 74 74.0001 69C73.5001 64 67.9977 31.3192 65.0001 28ZM55.0001 36C53.0001 31 53.0001 24 48.0001 24C43.0001 24 43.0001 31 41.0001 36C39.0001 41 34.0001 47 34.0001 56C34.0001 65 38.0001 72 48.0001 72C58.0001 72 62 65 62 56C62 47 57.0001 41 55.0001 36Z"/>
</svg>





</svg>
